<svg xmlns="http://www.w3.org/2000/svg" width="72" height="72" viewBox="0 0 72 72"><defs><style>.a{fill:none;}.b{fill:#413d3d;}</style></defs><g transform="translate(-80 -280)"><rect class="a" width="72" height="72" transform="translate(80 280)"/><g transform="translate(88 288)"><path class="b" d="M47.8,8.2A28,28,0,1,0,8.2,47.8,28,28,0,0,0,47.8,8.2ZM46.516,46.516A26.186,26.186,0,1,1,9.484,9.484,26.186,26.186,0,0,1,46.516,46.516Z" transform="translate(0 0)"/><path class="b" d="M78.342,52.733a7.675,7.675,0,0,1-.584-1.568,7.986,7.986,0,0,1-.065-1.733,6.784,6.784,0,0,0-.328-2.879,6.828,6.828,0,0,0-1.827-2.3,7.8,7.8,0,0,1-1.158-1.243,7.869,7.869,0,0,1-.716-1.56,6.823,6.823,0,0,0-1.415-2.548A6.823,6.823,0,0,0,69.7,37.491a7.873,7.873,0,0,1-1.56-.717A7.8,7.8,0,0,1,66.9,35.617a6.827,6.827,0,0,0-2.3-1.827,6.787,6.787,0,0,0-2.88-.329,7.973,7.973,0,0,1-1.734-.065,7.675,7.675,0,0,1-1.568-.584A6.971,6.971,0,0,0,55.577,32a6.97,6.97,0,0,0-2.844.812,7.675,7.675,0,0,1-1.568.584,7.986,7.986,0,0,1-1.733.065,6.787,6.787,0,0,0-2.879.328,6.828,6.828,0,0,0-2.3,1.827,7.8,7.8,0,0,1-1.243,1.158,7.869,7.869,0,0,1-1.56.716,6.822,6.822,0,0,0-2.548,1.415,6.823,6.823,0,0,0-1.415,2.548,7.874,7.874,0,0,1-.717,1.56,7.8,7.8,0,0,1-1.158,1.243,6.827,6.827,0,0,0-1.827,2.3,6.785,6.785,0,0,0-.329,2.88,7.98,7.98,0,0,1-.065,1.734,7.675,7.675,0,0,1-.584,1.568A6.975,6.975,0,0,0,32,55.577a6.97,6.97,0,0,0,.812,2.844,7.674,7.674,0,0,1,.584,1.568,7.987,7.987,0,0,1,.065,1.734,6.786,6.786,0,0,0,.328,2.879,6.829,6.829,0,0,0,1.827,2.3,7.79,7.79,0,0,1,1.158,1.243,7.874,7.874,0,0,1,.717,1.56A6.823,6.823,0,0,0,38.9,72.248a6.823,6.823,0,0,0,2.548,1.415,7.873,7.873,0,0,1,1.56.717,7.8,7.8,0,0,1,1.243,1.158,6.827,6.827,0,0,0,2.3,1.827,6.785,6.785,0,0,0,2.88.329,7.982,7.982,0,0,1,1.734.065,7.678,7.678,0,0,1,1.568.584,6.974,6.974,0,0,0,2.844.812,6.97,6.97,0,0,0,2.844-.812,7.675,7.675,0,0,1,1.568-.584,7.986,7.986,0,0,1,1.733-.065,6.784,6.784,0,0,0,2.879-.328,6.829,6.829,0,0,0,2.3-1.827A7.791,7.791,0,0,1,68.14,74.38a7.875,7.875,0,0,1,1.56-.717A5.3,5.3,0,0,0,73.662,69.7a5.369,5.369,0,0,1,1.874-2.8,6.828,6.828,0,0,0,1.827-2.3,6.787,6.787,0,0,0,.329-2.88,7.988,7.988,0,0,1,.065-1.734,7.676,7.676,0,0,1,.584-1.568,6.974,6.974,0,0,0,.812-2.844A6.972,6.972,0,0,0,78.342,52.733ZM76.726,57.69a9.077,9.077,0,0,0-.708,1.955,9.4,9.4,0,0,0-.1,2.132,5.447,5.447,0,0,1-.194,2.146,5.476,5.476,0,0,1-1.4,1.681A7.017,7.017,0,0,0,72,69.073a5.47,5.47,0,0,1-1.01,1.922,5.471,5.471,0,0,1-1.922,1.01,7.015,7.015,0,0,0-3.469,2.32,5.47,5.47,0,0,1-1.68,1.4,5.44,5.44,0,0,1-2.146.194,9.4,9.4,0,0,0-2.132.1,9.066,9.066,0,0,0-1.955.708,5.5,5.5,0,0,1-2.113.654,5.5,5.5,0,0,1-2.114-.654,9.078,9.078,0,0,0-1.955-.708,6.979,6.979,0,0,0-1.361-.114c-.259,0-.517.008-.772.016a5.446,5.446,0,0,1-2.146-.194,5.476,5.476,0,0,1-1.681-1.4A9.2,9.2,0,0,0,44,72.906a9.283,9.283,0,0,0-1.918-.9,5.47,5.47,0,0,1-1.922-1.01,5.471,5.471,0,0,1-1.01-1.922,9.283,9.283,0,0,0-.9-1.918,9.194,9.194,0,0,0-1.419-1.55,5.469,5.469,0,0,1-1.4-1.68,5.442,5.442,0,0,1-.194-2.145,9.4,9.4,0,0,0-.1-2.132,9.069,9.069,0,0,0-.708-1.955,5.5,5.5,0,0,1-.654-2.114,5.5,5.5,0,0,1,.654-2.114,9.072,9.072,0,0,0,.708-1.955,9.4,9.4,0,0,0,.1-2.132,5.447,5.447,0,0,1,.194-2.146,5.474,5.474,0,0,1,1.4-1.681A9.189,9.189,0,0,0,38.248,44a9.278,9.278,0,0,0,.9-1.918,5.471,5.471,0,0,1,1.01-1.922,5.474,5.474,0,0,1,1.922-1.01,9.276,9.276,0,0,0,1.918-.9,9.2,9.2,0,0,0,1.551-1.419,5.471,5.471,0,0,1,1.68-1.4,5.449,5.449,0,0,1,2.146-.194,9.392,9.392,0,0,0,2.132-.1,9.069,9.069,0,0,0,1.955-.708,5.5,5.5,0,0,1,2.113-.654,5.5,5.5,0,0,1,2.114.654,9.072,9.072,0,0,0,1.955.708,9.4,9.4,0,0,0,2.132.1,5.443,5.443,0,0,1,2.146.194,5.474,5.474,0,0,1,1.681,1.4,9.2,9.2,0,0,0,1.551,1.419,9.277,9.277,0,0,0,1.918.9,5.471,5.471,0,0,1,1.922,1.01,5.474,5.474,0,0,1,1.01,1.922,9.277,9.277,0,0,0,.9,1.918,9.2,9.2,0,0,0,1.419,1.551,5.471,5.471,0,0,1,1.4,1.68,5.447,5.447,0,0,1,.194,2.146,9.4,9.4,0,0,0,.1,2.132,9.067,9.067,0,0,0,.708,1.955,5.505,5.505,0,0,1,.654,2.113A5.5,5.5,0,0,1,76.726,57.69Z" transform="translate(-27.577 -27.577)"/><path class="b" d="M156.354,112.708A4.354,4.354,0,1,0,152,108.354,4.359,4.359,0,0,0,156.354,112.708Zm0-6.635a2.281,2.281,0,1,1-2.281,2.281A2.283,2.283,0,0,1,156.354,106.073Z" transform="translate(-134.029 -91.704)"/><path class="b" d="M296.708,164.354a4.354,4.354,0,1,0-4.354,4.354A4.359,4.359,0,0,0,296.708,164.354Zm-4.354,2.281a2.281,2.281,0,1,1,2.281-2.281A2.283,2.283,0,0,1,292.354,166.635Z" transform="translate(-253.95 -141.083)"/><path class="b" d="M244.354,304a4.354,4.354,0,1,0,4.354,4.354A4.359,4.359,0,0,0,244.354,304Zm0,6.635a2.281,2.281,0,1,1,2.281-2.281A2.283,2.283,0,0,1,244.354,310.635Z" transform="translate(-211.625 -268.058)"/><path class="b" d="M128.708,236.354a4.354,4.354,0,1,0-4.354,4.354A4.359,4.359,0,0,0,128.708,236.354Zm-4.354,2.281a2.281,2.281,0,1,1,2.281-2.281A2.283,2.283,0,0,1,124.354,238.635Z" transform="translate(-105.813 -204.571)"/><path class="b" d="M222.5,227.248a3.248,3.248,0,1,0-3.248,3.248A3.252,3.252,0,0,0,222.5,227.248Zm-3.248,1.175a1.175,1.175,0,1,1,1.175-1.175A1.176,1.176,0,0,1,219.248,228.423Z" transform="translate(-190.296 -197.344)"/><path class="b" d="M251.248,102.5A3.248,3.248,0,1,0,248,99.248,3.252,3.252,0,0,0,251.248,102.5Zm0-4.423a1.175,1.175,0,1,1-1.175,1.175A1.176,1.176,0,0,1,251.248,98.073Z" transform="translate(-218.488 -84.576)"/><path class="b" d="M323.248,248a3.248,3.248,0,1,0,3.248,3.248A3.252,3.252,0,0,0,323.248,248Zm0,4.423a1.175,1.175,0,1,1,1.175-1.175A1.176,1.176,0,0,1,323.248,252.423Z" transform="translate(-281.921 -218.488)"/><path class="b" d="M163.248,320a3.248,3.248,0,1,0,3.248,3.248A3.252,3.252,0,0,0,163.248,320Zm0,4.423a1.175,1.175,0,1,1,1.175-1.175A1.176,1.176,0,0,1,163.248,324.423Z" transform="translate(-140.96 -281.921)"/><path class="b" d="M99.248,166.5A3.248,3.248,0,1,0,96,163.248,3.252,3.252,0,0,0,99.248,166.5Zm0-4.423a1.175,1.175,0,1,1-1.175,1.175A1.176,1.176,0,0,1,99.248,162.073Z" transform="translate(-84.576 -140.96)"/><path class="b" d="M193.5,184.108a1.037,1.037,0,0,0-.927,1.854l2.212,1.106a1.037,1.037,0,1,0,.927-1.854Z" transform="translate(-169.014 -161.91)"/><path class="b" d="M241.037,163.179a1.033,1.033,0,0,0,.733-.3l1.106-1.106a1.037,1.037,0,1,0-1.466-1.466L240.3,161.41a1.037,1.037,0,0,0,.733,1.77Z" transform="translate(-211.189 -140.793)"/><path class="b" d="M202.877,281.41l-1.106-1.106a1.037,1.037,0,0,0-1.466,1.466l1.106,1.106a1.037,1.037,0,1,0,1.466-1.466Z" transform="translate(-175.992 -246.387)"/><path class="b" d="M281.771,248.3a1.037,1.037,0,1,0-1.466,1.466l1.106,1.106a1.037,1.037,0,0,0,1.466-1.466Z" transform="translate(-246.388 -218.229)"/><path class="b" d="M362.783,208.108l-2.212,1.106a1.037,1.037,0,1,0,.927,1.854l2.212-1.106a1.037,1.037,0,1,0-.927-1.854Z" transform="translate(-316.903 -183.028)"/><path class="b" d="M82.876,232.3a1.037,1.037,0,0,0-1.466,0L80.3,233.41a1.037,1.037,0,1,0,1.466,1.466l1.106-1.106A1.037,1.037,0,0,0,82.876,232.3Z" transform="translate(-70.396 -204.149)"/><path class="b" d="M209.41,74.876a1.037,1.037,0,1,0,1.466-1.466L209.77,72.3A1.037,1.037,0,0,0,208.3,73.77Z" transform="translate(-183.03 -63.357)"/><path class="b" d="M217.037,360A1.037,1.037,0,0,0,216,361.037v1.106a1.037,1.037,0,0,0,2.073,0v-1.106A1.037,1.037,0,0,0,217.037,360Z" transform="translate(-190 -316.783)"/><path class="b" d="M321.41,312.3,320.3,313.41a1.037,1.037,0,1,0,1.466,1.466l1.106-1.106a1.037,1.037,0,0,0-1.466-1.466Z" transform="translate(-281.585 -274.546)"/><path class="b" d="M113.77,312.3a1.037,1.037,0,1,0-1.466,1.466l1.106,1.106a1.037,1.037,0,1,0,1.466-1.466Z" transform="translate(-98.555 -274.545)"/><path class="b" d="M313.41,106.876a1.037,1.037,0,1,0,1.466-1.466L313.77,104.3a1.037,1.037,0,0,0-1.466,1.466Z" transform="translate(-274.546 -91.515)"/><path class="b" d="M345.037,146.073a1.038,1.038,0,1,0-.733-.3A1.04,1.04,0,0,0,345.037,146.073Z" transform="translate(-302.592 -126.666)"/><path class="b" d="M256.3,200.3a1.035,1.035,0,1,0,.733-.3A1.041,1.041,0,0,0,256.3,200.3Z" transform="translate(-225.185 -175.926)"/><path class="b" d="M160.3,208.3a1.035,1.035,0,1,0,.733-.3A1.038,1.038,0,0,0,160.3,208.3Z" transform="translate(-140.741 -182.963)"/><path class="b" d="M121.037,122.073a1.038,1.038,0,1,0-.733-.3A1.041,1.041,0,0,0,121.037,122.073Z" transform="translate(-105.555 -105.555)"/><path class="b" d="M248.3,280.3a1.035,1.035,0,1,0,.733-.3A1.04,1.04,0,0,0,248.3,280.3Z" transform="translate(-218.148 -246.296)"/><path class="b" d="M249.037,376a1.038,1.038,0,1,0,.733.3A1.041,1.041,0,0,0,249.037,376Z" transform="translate(-218.148 -332.026)"/><path class="b" d="M97.037,272a1.038,1.038,0,1,0,.733.3A1.041,1.041,0,0,0,97.037,272Z" transform="translate(-84.444 -239.259)"/></g></g></svg>